<?xml version="1.0" encoding="iso-8859-1"?>
<!-- Generator: Adobe Illustrator 19.0.0, SVG Export Plug-In . SVG Version: 6.00 Build 0)  -->
<svg version="1.1" id="Capa_1" xmlns="http://www.w3.org/2000/svg" xmlns:xlink="http://www.w3.org/1999/xlink" x="0px" y="0px"
	 viewBox="0 0 512 512" style="enable-background:new 0 0 512 512;" xml:space="preserve">
<g>
	<g>
		<path d="M167.306,130.482v-26.146c5.555,1.815,9.048,5.479,9.048,8.876c0,4.143,3.358,7.5,7.5,7.5c4.142,0,7.5-3.357,7.5-7.5
			c0-11.979-10.095-21.739-24.048-24.345V87.66c0-4.143-3.358-7.5-7.5-7.5c-4.142,0-7.5,3.357-7.5,7.5v1.207
			c-13.953,2.606-24.048,12.365-24.048,24.345c0,16.74,13.375,23.774,24.048,27.821v26.146c-5.554-1.814-9.048-5.478-9.048-8.875
			c0-4.143-3.358-7.5-7.5-7.5c-4.142,0-7.5,3.357-7.5,7.5c0,11.979,10.095,21.739,24.048,24.345v1.206c0,4.143,3.358,7.5,7.5,7.5
			c4.142,0,7.5-3.357,7.5-7.5v-1.206c13.953-2.606,24.048-12.365,24.048-24.345C191.354,141.565,177.979,134.531,167.306,130.482z
			 M152.306,124.673c-7.518-3.68-9.048-6.892-9.048-11.46c0-3.397,3.493-7.062,9.048-8.876V124.673z M167.307,167.18v-20.336
			c7.518,3.68,9.048,6.891,9.048,11.46C176.355,161.701,172.862,165.366,167.307,167.18z"/>
	</g>
</g>
<g>
	<g>
		<path d="M384.258,224.451H127.742c-4.142,0-7.5,3.358-7.5,7.5v144.291c0,4.143,3.358,7.5,7.5,7.5h256.516
			c4.143,0,7.5-3.357,7.5-7.5V231.951C391.758,227.808,388.401,224.451,384.258,224.451z M135.242,239.451h129.29v33.098h-129.29
			V239.451z M264.533,368.743H135.242v-33.097h129.291V368.743z M264.533,320.646L264.533,320.646H135.242v-33.097h129.291V320.646z
			 M279.532,239.451h41.113v33.098h-41.113V239.451z M320.646,368.743h-41.113v-33.097h41.113V368.743z M320.646,320.646h-41.113
			v-33.097h41.113V320.646z M376.758,368.742h-41.112v-33.097h41.112V368.742z M376.758,320.646h-41.112v-33.097h41.112V320.646z
			 M376.758,272.549h-41.112v-33.098h41.112V272.549z"/>
	</g>
</g>
<g>
	<g>
		<path d="M328.146,96.193h-16.029c-4.143,0-7.5,3.357-7.5,7.5s3.357,7.5,7.5,7.5h16.029c4.143,0,7.5-3.357,7.5-7.5
			S332.289,96.193,328.146,96.193z"/>
	</g>
</g>
<g>
	<g>
		<path d="M280.05,96.193h-56.114c-4.142,0-7.5,3.357-7.5,7.5s3.357,7.5,7.5,7.5h56.114c4.143,0,7.5-3.357,7.5-7.5
			S284.193,96.193,280.05,96.193z"/>
	</g>
</g>
<g>
	<g>
		<path d="M328.146,128.258h-104.21c-4.142,0-7.5,3.357-7.5,7.5s3.357,7.5,7.5,7.5h104.21c4.143,0,7.5-3.357,7.5-7.5
			S332.289,128.258,328.146,128.258z"/>
	</g>
</g>
<g>
	<g>
		<path d="M328.146,160.322h-16.032c-4.143,0-7.5,3.357-7.5,7.5s3.357,7.5,7.5,7.5h16.032c4.143,0,7.5-3.357,7.5-7.5
			S332.288,160.322,328.146,160.322z"/>
	</g>
</g>
<g>
	<g>
		<path d="M280.049,160.322h-56.113c-4.142,0-7.5,3.357-7.5,7.5s3.357,7.5,7.5,7.5h56.113c4.143,0,7.5-3.357,7.5-7.5
			S284.192,160.322,280.049,160.322z"/>
	</g>
</g>
<g>
	<g>
		<path d="M416.322,0H95.677C78.281,0,64.129,14.152,64.129,31.549v448.902c0,17.396,14.152,31.549,31.548,31.549h320.645
			c17.396,0,31.549-14.152,31.549-31.549V31.549C447.871,14.152,433.719,0,416.322,0z M432.871,480.451
			c0,9.125-7.424,16.549-16.549,16.549H95.677c-9.125,0-16.548-7.424-16.548-16.549V31.549C79.129,22.424,86.553,15,95.677,15
			h320.645c9.125,0,16.549,7.424,16.549,16.549V480.451z"/>
	</g>
</g>
<g>
	<g>
		<path d="M408.307,432.871H103.693c-4.142,0-7.5,3.357-7.5,7.5s3.358,7.5,7.5,7.5h304.613c4.143,0,7.5-3.357,7.5-7.5
			S412.449,432.871,408.307,432.871z"/>
	</g>
</g>
<g>
	<g>
		<path d="M408.307,32.064H103.693c-4.142,0-7.5,3.357-7.5,7.5c0,4.143,3.358,7.5,7.5,7.5h304.613c4.143,0,7.5-3.357,7.5-7.5
			C415.806,35.421,412.449,32.064,408.307,32.064z"/>
	</g>
</g>
<g>
	<g>
		<path d="M272.032,464.936h-32.064c-4.142,0-7.5,3.357-7.5,7.5s3.358,7.5,7.5,7.5h32.064c4.143,0,7.5-3.357,7.5-7.5
			S276.175,464.936,272.032,464.936z"/>
	</g>
</g>
<g>
</g>
<g>
</g>
<g>
</g>
<g>
</g>
<g>
</g>
<g>
</g>
<g>
</g>
<g>
</g>
<g>
</g>
<g>
</g>
<g>
</g>
<g>
</g>
<g>
</g>
<g>
</g>
<g>
</g>
</svg>
